# xmcd CD database file
#
# Track frame offsets:
#	150
#	19068
#	34819
#	48389
#	72343
#	93133
#	103774
#	117493
#	130764
#	145659
#	164332
#	179823
#	196248
#	209500
#	225734
#	243716
#
# Disc length: 3422 seconds
#
# Revision: 1
# Processed by: cddbd v1.5.2PL0 Copyright (c) Steve Scherf et al.
# Submitted via: CDex 1.51
#
DISCID=e90d5c10
DTITLE=Varios - Cuba - The Intro Collection - CD 1
DYEAR=2008
DGENRE=Salsa
TTITLE0=Ruben Gonzalez - Date Una Vueltecita
TTITLE1=Compay Segundo - Maria En La Playa
TTITLE2=Ibrahim Ferrer - Una Fuerza Immensa
TTITLE3=Conjunto Rumbavana - No Me Llores
TTITLE4=Omara Poruondo - Besame Mucho
TTITLE5=Omara Proundo - Hoermosa Habana
TTITLE6=Ruben Gonzalez - Todo Aquel Ayer
TTITLE7=Beny ore - Como Fuze
TTITLE8=Beny More - Encantado De La Vida
TTITLE9=Comay Segundo - San Luisera
TTITLE10=Ruben Gonzalez - La Gloria Eres Tu
TTITLE11=Compay Segundo - Me Diras Que Saborso
TTITLE12=Ruben Gonzalez - Feliz Chachacha
TTITLE13=Comay Segundo - Juramento
TTITLE14=Celeste Mendoza Y Grupo Sierra Maestra - Suavecito
TTITLE15=Qquesta Fajardo Y Sus Estrellas - Boniato
EXTD=YEAR: 2008
EXTT0=
EXTT1=
EXTT2=
EXTT3=
EXTT4=
EXTT5=
EXTT6=
EXTT7=
EXTT8=
EXTT9=
EXTT10=
EXTT11=
EXTT12=
EXTT13=
EXTT14=
EXTT15=
PLAYORDER=
